<svg width="30" height="30" viewBox="0 0 30 30" fill="none" xmlns="http://www.w3.org/2000/svg">
<path d="M0.822248 28.7235C0.102219 28.0035 0.102219 26.8361 0.822248 26.116L26.0277 0.910627C26.7477 0.190597 27.9151 0.190599 28.6351 0.910628C29.3551 1.63066 29.3551 2.79806 28.6351 3.51808L3.4297 28.7235C2.70967 29.4435 1.54228 29.4435 0.822248 28.7235Z" fill="#F1F4F6"/>
<path d="M1.36567 1.27696C2.0857 0.556934 3.2531 0.556934 3.97313 1.27696L29.1785 26.4824C29.8986 27.2024 29.8986 28.3698 29.1785 29.0898C28.4585 29.8099 27.2911 29.8099 26.5711 29.0898L1.36567 3.88442C0.64564 3.16439 0.645642 1.99699 1.36567 1.27696Z" fill="#F1F4F6"/>
</svg>
