<svg width="31" height="21" viewBox="0 0 31 21" fill="none" xmlns="http://www.w3.org/2000/svg">
<path d="M23.4976 6.71059H20.1024L18.5216 4.34633L20.4735 3.04049L18.9615 0.758705L12.7759 4.88242L14.288 7.1642L16.2536 5.85836L17.8344 8.25011L16.6247 9.45974H12.7759L6.76906 0.456299L4.48727 1.96833L6.82404 5.48723C4.93995 5.84583 3.24015 6.85093 2.01801 8.32904C0.795874 9.80714 0.128081 11.6655 0.129886 13.5834V16.3326H2.87903C2.87903 17.4263 3.31349 18.4751 4.08683 19.2485C4.86018 20.0218 5.90906 20.4563 7.00274 20.4563C8.09642 20.4563 9.1453 20.0218 9.91864 19.2485C10.692 18.4751 11.1265 17.4263 11.1265 16.3326H19.3739C19.3739 17.4263 19.8083 18.4751 20.5817 19.2485C21.355 20.0218 22.4039 20.4563 23.4976 20.4563C24.5913 20.4563 25.6401 20.0218 26.4135 19.2485C27.1868 18.4751 27.6213 17.4263 27.6213 16.3326H30.3704V13.5834C30.3704 12.6809 30.1927 11.7872 29.8473 10.9533C29.5019 10.1195 28.9956 9.36181 28.3574 8.72361C27.7192 8.0854 26.9616 7.57915 26.1277 7.23376C25.2939 6.88837 24.4001 6.71059 23.4976 6.71059ZM7.00274 18.3944C6.4559 18.3944 5.93146 18.1772 5.54479 17.7905C5.15811 17.4039 4.94088 16.8794 4.94088 16.3326C4.94088 15.7857 5.15811 15.2613 5.54479 14.8746C5.93146 14.488 6.4559 14.2707 7.00274 14.2707C7.54958 14.2707 8.07402 14.488 8.46069 14.8746C8.84736 15.2613 9.06459 15.7857 9.06459 16.3326C9.06459 16.8794 8.84736 17.4039 8.46069 17.7905C8.07402 18.1772 7.54958 18.3944 7.00274 18.3944ZM23.4976 18.3944C22.9507 18.3944 22.4263 18.1772 22.0396 17.7905C21.653 17.4039 21.4357 16.8794 21.4357 16.3326C21.4357 15.7857 21.653 15.2613 22.0396 14.8746C22.4263 14.488 22.9507 14.2707 23.4976 14.2707C24.0444 14.2707 24.5689 14.488 24.9555 14.8746C25.3422 15.2613 25.5594 15.7857 25.5594 16.3326C25.5594 16.8794 25.3422 17.4039 24.9555 17.7905C24.5689 18.1772 24.0444 18.3944 23.4976 18.3944Z" fill="#83898D"/>
</svg>
