<svg width="144" height="27" viewBox="0 0 144 27" fill="none" xmlns="http://www.w3.org/2000/svg">
<path d="M26.4266 23.8309C26.6301 23.6838 26.5783 23.3674 26.3385 23.2929L9.45084 18.0433C9.33546 18.0074 9.25115 17.9194 9.23219 17.815L6.96322 5.32185C6.92269 5.09867 6.76156 4.91646 6.54501 4.84893L3.43651 3.87955C1.58151 3.30108 -0.271766 4.6164 0.0331037 6.29505L2.66169 20.7684C2.68065 20.8727 2.76496 20.9608 2.88035 20.9966L21.9122 26.9128C22.0211 26.9466 22.1411 26.9288 22.2281 26.8659L26.4266 23.8309Z" fill="#E22525"/>
<path d="M30.0064 23.1718L10.9745 17.2556C10.8591 17.2198 10.7748 17.1317 10.7558 17.0274L8.12725 2.55405C7.82238 0.875405 9.67566 -0.439921 11.5307 0.138555L46.3302 10.9907C46.5699 11.0655 46.6308 11.3356 46.4393 11.4741L30.3222 23.1249C30.2352 23.1878 30.1153 23.2056 30.0064 23.1718Z" fill="#E22525"/>
<path d="M57.0911 18.4648C56.9088 18.4648 56.8062 18.3623 56.8062 18.1799V11.9466H54.3448C54.1625 11.9466 54.0599 11.844 54.0599 11.6617V10.7045C54.0599 10.5222 54.1625 10.4196 54.3448 10.4196H60.8516C61.034 10.4196 61.1365 10.5222 61.1365 10.7045V11.6617C61.1365 11.844 61.034 11.9466 60.8516 11.9466H58.3902V18.1799C58.3902 18.3623 58.2877 18.4648 58.1053 18.4648H57.0911Z" fill="#F1F4F6"/>
<path d="M64.7976 18.4648C62.9059 18.4648 62.0969 17.3936 62.0969 15.6957V10.7045C62.0969 10.5222 62.1994 10.4196 62.3818 10.4196H63.396C63.5783 10.4196 63.6808 10.5222 63.6808 10.7045V15.7527C63.6808 16.7327 64.0341 16.9492 64.7976 16.9492H67.3616C68.1251 16.9492 68.4669 16.7327 68.4669 15.7527V10.7045C68.4669 10.5222 68.5695 10.4196 68.7518 10.4196H69.7774C69.9598 10.4196 70.0623 10.5222 70.0623 10.7045V15.6957C70.0623 17.3936 69.2418 18.4648 67.3616 18.4648H64.7976Z" fill="#F1F4F6"/>
<path d="M79.1902 13.4964C79.1902 14.8866 78.7458 15.8325 77.5264 16.1971L78.8825 18.123C79.0193 18.3167 78.9281 18.4648 78.7002 18.4648H77.5151C77.3669 18.4648 77.253 18.4078 77.1732 18.2825L75.9311 16.3567H73.1278V18.1799C73.1278 18.3623 73.0252 18.4648 72.8429 18.4648H71.8287C71.6464 18.4648 71.5438 18.3623 71.5438 18.1799V10.7045C71.5438 10.5222 71.6464 10.4196 71.8287 10.4196H75.9653C78.3013 10.4196 79.1902 11.3996 79.1902 13.3255V13.4964ZM77.5948 13.485V13.3368C77.5948 12.1517 77.082 11.9352 75.8399 11.9352H73.1278V14.8524H75.8399C77.0592 14.8524 77.5948 14.6473 77.5948 13.485Z" fill="#F1F4F6"/>
<path d="M80.6647 18.4648C80.4823 18.4648 80.3798 18.3623 80.3798 18.1799V10.7045C80.3798 10.5222 80.4823 10.4196 80.6647 10.4196H85.0747C87.0006 10.4196 87.764 11.1717 87.7868 12.6417V12.7557C87.7868 13.7015 87.3994 14.1459 86.955 14.4194C87.4108 14.6929 87.8438 15.1943 87.8438 16.1857V16.2883C87.8438 17.7469 87.0803 18.4648 85.1545 18.4648H80.6647ZM81.9523 13.7927H85.1089C85.7015 13.7927 86.1459 13.6445 86.1459 12.9836V12.8013C86.1459 12.1175 85.7015 11.9352 84.9722 11.9352H81.9523V13.7927ZM81.9523 16.9606H85.0519C85.7584 16.9606 86.2257 16.8011 86.2257 16.1173V15.935C86.2257 15.2627 85.7812 15.069 85.1659 15.069H81.9523V16.9606Z" fill="#F1F4F6"/>
<path d="M91.6236 18.4648C89.732 18.4648 88.9229 17.3936 88.9229 15.6957V13.2001C88.9229 11.4908 89.732 10.4196 91.6236 10.4196H94.5523C96.4439 10.4196 97.253 11.4908 97.253 13.2001V15.6957C97.253 17.3936 96.4439 18.4648 94.5523 18.4648H91.6236ZM91.6236 16.9492H94.5523C95.3158 16.9492 95.669 16.7327 95.669 15.7527V13.1431C95.669 12.1517 95.35 11.9352 94.5523 11.9352H91.6236C90.8374 11.9352 90.5069 12.1517 90.5069 13.1431V15.7527C90.5069 16.7327 90.8601 16.9492 91.6236 16.9492Z" fill="#F1F4F6"/>
<path d="M103.897 18.4648C103.715 18.4648 103.612 18.3623 103.612 18.1799V11.9466H101.151C100.969 11.9466 100.866 11.844 100.866 11.6617V10.7045C100.866 10.5222 100.969 10.4196 101.151 10.4196H107.658C107.84 10.4196 107.943 10.5222 107.943 10.7045V11.6617C107.943 11.844 107.84 11.9466 107.658 11.9466H105.196V18.1799C105.196 18.3623 105.094 18.4648 104.911 18.4648H103.897Z" fill="#F1F4F6"/>
<path d="M109.142 18.4648C108.96 18.4648 108.857 18.3623 108.857 18.1799V10.7045C108.857 10.5222 108.96 10.4196 109.142 10.4196H110.145C110.327 10.4196 110.43 10.5222 110.43 10.7045V18.1799C110.43 18.3623 110.327 18.4648 110.145 18.4648H109.142Z" fill="#F1F4F6"/>
<path d="M114.415 18.4648C112.523 18.4648 111.714 17.3936 111.714 15.6957V13.2001C111.714 11.4908 112.523 10.4196 114.415 10.4196H116.956C118.847 10.4196 119.657 11.4908 119.657 13.2001V13.2343C119.657 13.4166 119.554 13.5192 119.372 13.5192H118.357C118.175 13.5192 118.073 13.4394 118.073 13.3255V13.1431C118.073 12.1517 117.742 11.9352 116.956 11.9352H114.415C113.628 11.9352 113.298 12.1517 113.298 13.1431V15.7527C113.298 16.7327 113.651 16.9492 114.415 16.9492H116.956C117.719 16.9492 118.073 16.7327 118.073 15.7527V15.5362C118.073 15.3538 118.175 15.2513 118.357 15.2513H119.372C119.554 15.2513 119.657 15.3311 119.657 15.4678V15.6957C119.657 17.3936 118.847 18.4648 116.956 18.4648H114.415Z" fill="#F1F4F6"/>
<path d="M121.116 18.4648C120.934 18.4648 120.832 18.3623 120.832 18.1799V10.7045C120.832 10.5222 120.934 10.4196 121.116 10.4196H122.131C122.313 10.4196 122.416 10.5222 122.416 10.7045V13.7585H123.92L126.586 10.5791C126.677 10.4652 126.791 10.4196 126.94 10.4196H128.182C128.421 10.4196 128.501 10.5791 128.341 10.7729L125.242 14.4308L128.341 18.1116C128.501 18.3053 128.421 18.4648 128.182 18.4648H126.94C126.791 18.4648 126.677 18.4192 126.586 18.3053L123.92 15.1715H122.416V18.1799C122.416 18.3623 122.313 18.4648 122.131 18.4648H121.116Z" fill="#F1F4F6"/>
<path d="M129.763 18.4648C129.581 18.4648 129.478 18.3623 129.478 18.1799V10.7045C129.478 10.5222 129.581 10.4196 129.763 10.4196H135.997C136.179 10.4196 136.281 10.5222 136.281 10.7045V11.6503C136.281 11.8326 136.179 11.9352 135.997 11.9352H131.051V13.6901H134.253C134.435 13.6901 134.538 13.7927 134.538 13.975V14.8069C134.538 14.9892 134.435 15.0918 134.253 15.0918H131.051V16.9492H135.997C136.179 16.9492 136.281 17.0518 136.281 17.2341V18.1799C136.281 18.3623 136.179 18.4648 135.997 18.4648H129.763Z" fill="#F1F4F6"/>
<path d="M139.931 18.4648C139.749 18.4648 139.646 18.3623 139.646 18.1799V11.9466H137.185C137.002 11.9466 136.9 11.844 136.9 11.6617V10.7045C136.9 10.5222 137.002 10.4196 137.185 10.4196H143.691C143.874 10.4196 143.976 10.5222 143.976 10.7045V11.6617C143.976 11.844 143.874 11.9466 143.691 11.9466H141.23V18.1799C141.23 18.3623 141.128 18.4648 140.945 18.4648H139.931Z" fill="#F1F4F6"/>
</svg>
