<svg width="48" height="28" viewBox="0 0 48 28" fill="none" xmlns="http://www.w3.org/2000/svg">
<g id="logo">
<path d="M26.1367 25.3753C26.8045 24.8925 26.6345 23.8546 25.8477 23.61L9.74467 18.6043C9.6257 18.5673 9.53876 18.4765 9.51922 18.3689L7.3281 6.30439C7.19509 5.57199 6.66633 4.97406 5.95571 4.75246L3.54335 4.00017C1.63068 3.40371 -0.280216 4.75993 0.034133 6.49077L2.74445 21.4141C2.76399 21.5217 2.85093 21.6124 2.9699 21.6494L22.5935 27.7495C22.7058 27.7844 22.8294 27.766 22.9191 27.7012L26.1367 25.3753Z" fill="#E22525"/>
<path d="M30.9393 23.8922L11.3157 17.7921C11.1967 17.7551 11.1098 17.6644 11.0902 17.5568L8.37993 2.63346C8.06558 0.902622 9.97648 -0.453599 11.8891 0.142863L47.7707 11.3324C48.0177 11.4095 48.0806 11.6881 47.8831 11.8308L31.2649 23.8439C31.1752 23.9087 31.0516 23.9271 30.9393 23.8922Z" fill="#E22525"/>
</g>
</svg>
